<?xml version="1.0" encoding="UTF-8"?>
<svg id="Layer_2" data-name="Layer 2" xmlns="http://www.w3.org/2000/svg" viewBox="0 0 14.82 14.82">
  <defs>
    <style>
      .cls-1 {
        fill: #a9abae;
      }
    </style>
  </defs>
  <g id="Layer_1-2" data-name="Layer 1">
    <g>
      <path class="cls-1" d="m7.41,0C3.32,0,0,3.32,0,7.41s3.32,7.41,7.41,7.41,7.41-3.32,7.41-7.41S11.5,0,7.41,0Zm0,13.8c-3.52,0-6.39-2.87-6.39-6.39S3.89,1.02,7.41,1.02s6.39,2.87,6.39,6.39-2.87,6.39-6.39,6.39Z"/>
      <path class="cls-1" d="m8.45,6.64c-1.04,1.05-1.88,2.13-2.54,3.25l-.18-.41c-.37-.82-.7-1.22-1-1.22-.35,0-.74.22-1.16.67.25.09.47.26.68.52s.42.67.65,1.21l.16.38c.17.42.28.72.33.9.13-.12.37-.31.73-.56l.43-.29c.54-1.14,1.32-2.36,2.34-3.67s1.95-2.28,2.79-2.91l-.21-.29c-.99.56-2,1.37-3.04,2.42Z"/>
    </g>
  </g>
</svg>