<?xml version="1.0" encoding="UTF-8"?>
<svg id="Layer_2" data-name="Layer 2" xmlns="http://www.w3.org/2000/svg" viewBox="0 0 64 63.16" width="64" height="64">
  <defs>
    <style>
      .cls-1 {
        fill: #231f20;
      }
    </style>
  </defs>
  <g id="Layer_1-2" data-name="Layer 1">
    <path class="cls-1" d="m64,31.6c-5.23,1.79-11.19,7.61-17.88,17.46-4.36,4.25-8.67,6.38-12.93,6.38-2.24,0-4.17-.55-5.79-1.64.78-1.15,1.18-2.41,1.18-3.78,0-1.87-.66-3.71-1.97-5.5.2,5.99-1.5,10.11-5.08,12.38-2.07,1.32-4.31,1.86-6.71,1.64-.53,0-1.33-.12-2.39-.36-1.06-.24-1.86-.36-2.39-.36-1.2,0-2.27.34-3.19,1.01-1.04.73-1.55,1.67-1.55,2.81,0,.56.15,1.06.46,1.51-3.83-1.54-5.75-3.75-5.75-6.63,0-1.09.31-2.07.92-2.94,1.12-1.57,2.53-2.74,4.24-3.53-1.09-1.31-1.64-2.88-1.64-4.7,0-2.21.98-4.29,2.94-6.25,1.51-1.51,3.11-2.27,4.78-2.27s3.11.64,4.45,1.93c-2.49.08-3.74.83-3.74,2.22,0,.78.35,1.64,1.05,2.56.7.31,1.76.97,3.19,1.97,1.31,1.32,1.97,2.62,1.97,3.9s-.6,2.43-1.8,3.36c.03-.25.04-.49.04-.71,0-1.01-.42-1.51-1.26-1.51-.42,0-.85.2-1.3.61-.45.41-.67.82-.67,1.24,0,.48.24.91.71,1.3.87,1.01,1.9,1.51,3.11,1.51,1.48,0,3.02-.87,4.62-2.6,1.43-1.54,2.14-3.32,2.14-5.33,0-3.13-1.08-5.69-3.23-7.68-3.19-2.94-6.17-4.66-8.94-5.16-2.13-.39-3.19-1.16-3.19-2.31,0-.22.04-.42.13-.59-.11-.22-.17-.48-.17-.76,0-1.2,1.08-1.9,3.23-2.1,2.43-.22,5.41-1.94,8.94-5.16,2.15-1.99,3.23-4.55,3.23-7.68,0-2.01-.71-3.79-2.14-5.33-1.59-1.73-3.13-2.6-4.62-2.6-1.2,0-2.24.5-3.11,1.51-.48.39-.71.83-.71,1.3,0,.42.22.83.67,1.24.45.41.88.61,1.3.61.84,0,1.26-.5,1.26-1.51,0-.22-.01-.46-.04-.71,1.2.92,1.8,2.04,1.8,3.36s-.66,2.59-1.97,3.9c-.67.67-1.74,1.33-3.19,1.97-.7.92-1.05,1.78-1.05,2.56,0,1.4,1.24,2.14,3.74,2.22-1.34,1.29-2.83,1.93-4.45,1.93s-3.27-.76-4.78-2.27c-1.96-1.96-2.94-4.04-2.94-6.25,0-1.82.55-3.38,1.64-4.7C1.72,11.39,0,9.23,0,6.63,0,3.75,1.92,1.54,5.75,0c-.31.45-.46.95-.46,1.51,0,1.15.52,2.08,1.55,2.81.92.67,1.97,1.01,3.15,1.01.53,0,1.34-.12,2.41-.36,1.08-.24,1.88-.36,2.41-.36,2.41-.22,4.64.32,6.71,1.64,3.58,2.27,5.27,6.39,5.08,12.38,1.31-1.79,1.97-3.62,1.97-5.5,0-1.37-.39-2.63-1.18-3.78,1.62-1.09,3.55-1.64,5.79-1.64,4.28,0,8.59,2.13,12.93,6.38,6.32,9.88,12.28,15.71,17.88,17.5-.64.08-1.29.13-1.93.13-4.9,0-8.91-1.87-12.04-5.62-2.52,3.92-5.68,5.88-9.48,5.88-4.09,0-7.01-2.11-8.77-6.34-.22-.53-.34-1.19-.34-1.97,0-2.49,1.34-4.53,4.03-6.13-.45,1.06-.67,2.08-.67,3.06,0,1.23.39,2.15,1.18,2.77.73-.98,1.62-1.47,2.69-1.47.92,0,1.87.38,2.85,1.15.98.77,1.47,1.62,1.47,2.54s-.52,1.74-1.55,2.43c-.11-1.51-.64-2.32-1.59-2.43-.87-.11-1.3.21-1.3.97s.53,1.45,1.59,2.1c.78.48,1.54.71,2.27.71,1.06,0,2.14-.56,3.23-1.68.81-.81,1.22-1.9,1.22-3.27,0-2.24-1.04-4.22-3.11-5.96-1.99-1.65-4.11-2.48-6.38-2.48-3.16,0-6.27,1.75-9.32,5.25-5.12,5.88-9.19,9.33-12.21,10.37,3.02,1.01,7.09,4.45,12.21,10.32,3.02,3.47,6.13,5.2,9.32,5.2,2.27,0,4.41-.85,6.44-2.54,2.03-1.69,3.04-3.64,3.04-5.85,0-1.37-.41-2.46-1.22-3.27-1.09-1.12-2.17-1.68-3.23-1.68-.73,0-1.48.24-2.27.71-1.06.64-1.59,1.34-1.59,2.1s.43,1.08,1.3.97c.98-.14,1.51-.95,1.59-2.43,1.03.7,1.55,1.51,1.55,2.43s-.49,1.74-1.47,2.52c-.98.78-1.93,1.18-2.85,1.18-1.06,0-1.96-.49-2.69-1.47-.78.62-1.18,1.54-1.18,2.77,0,.98.22,2,.67,3.06-2.57-1.51-3.86-3.51-3.86-6,0-.28.01-.57.04-.88,1.23-4.64,4.11-6.97,8.65-6.97,2.43,0,4.35.55,5.75,1.64.95.73,2.24,2.35,3.86,4.87.67-1.23,1.59-2.31,2.77-3.23,2.77-2.18,6.55-3.33,11.33-3.44Zm-57.54,4.49c1.2,0,1.8-.6,1.8-1.8v-5.41c0-1.2-.6-1.8-1.8-1.8s-1.8.6-1.8,1.8v5.41c0,1.2.6,1.8,1.8,1.8Zm25.1-7.43c-.84.98-1.26,1.95-1.26,2.9,0,1.04.56,1.9,1.68,2.6-1.62,1.71-2.36,3.15-2.22,4.32-.95-.76-2.45-2.32-4.49-4.7-.64-1.01-2.01-1.73-4.11-2.18.95-.25,2.24-.92,3.86-2.01,1.99-2.46,3.45-3.85,4.41-4.15.48.92,1.19,2,2.14,3.23Z"/>
  </g>
</svg>