<?xml version="1.0" encoding="UTF-8"?>
<svg id="Layer_2" data-name="Layer 2" xmlns="http://www.w3.org/2000/svg" viewBox="0 0 32.01 45.25">
  <defs>
    <style>
      .cls-1 {
        fill: #231f20;
      }
    </style>
  </defs>
  <g id="Layer_1-2" data-name="Layer 1">
    <g>
      <path class="cls-1" d="m20.51,12.59c.97.22,2.66,1.07,3.45,1.6,1.47-3.09,5.92-6.85,2.81-10.79-1.4-1.52-3.98-1.13-5.5-.08,2.13,3.98.99,7.08-.76,9.27"/>
      <path class="cls-1" d="m17.93,12.02c.64.11,1.61.28,2.15.45,2.12-2.66,2.73-5.36.93-8.99-.76.51-2.49,1.34-3.59,1.6-.35,2.3-.05,4.61.51,6.94"/>
      <path class="cls-1" d="m11.5,12.59c-1.75-2.19-2.9-5.29-.77-9.27-1.52-1.05-4.09-1.44-5.5.08-3.12,3.94,1.33,7.7,2.81,10.79.8-.53,2.48-1.38,3.45-1.6"/>
      <rect class="cls-1" x="1.87" y="35.54" width="9.48" height="2"/>
      <rect class="cls-1" x="20.65" y="35.54" width="9.48" height="2"/>
      <rect class="cls-1" x="1.87" y="20.65" width="9.48" height="2"/>
      <path class="cls-1" d="m5.98,26.63c1.13-.82,2.71-1.53,4.05-1.88v6.19s.49.17.49.17v2.12c-1.53-.36-3.18-1.06-4.47-1.99v-1.53c.89.39,2.06.78,3.07,1.05v-3.63c-1.04.2-2.27.78-3.14,1.22v-1.71Zm4.9-2.12c.7-.2,1.4-.29,2.18-.33v9.51s-.98-.17-.98-.17v-6.82s-1.2.12-1.2.12v-2.31Zm2.96,6.85l3.09.07v-4.87h-2.97v-2.51c.44-.05,3.1-.16,3.82-.02v7.38l.37-.07v2.41c-1.25.19-3.03.19-4.31,0v-2.39Zm4.75-7.28l.49.1s2.7,4.09,2.68,4.15v-3.64c.37.07,1.15.34,1.46.46l.02,3.58-.77.61.61.85v2.56l-.19.07-2.87-3.96v4.69l-1.17.17v-4.85l.7-.91-.94-1.53v-2.36Zm5.27,6.09c.75-.24,1.61-.71,2.23-1.22-.54-.51-1.45-.9-2.15-1.14v-2.4c.84.34,2.01,1.05,2.4,1.63v1.75s.24-.15.39-.27v1.78c-.78,1.15-2.07,1.78-2.88,2.12v-2.27Zm-20.48,4.61h25.26v-11.71H3.38v11.71Z"/>
      <path class="cls-1" d="m11.94,12.47c.54-.17,1.51-.34,2.15-.45.56-2.33.86-4.64.51-6.94-1.1-.26-2.83-1.09-3.59-1.6-1.8,3.63-1.19,6.33.93,8.99"/>
      <polygon class="cls-1" points="10.18 41.21 9.22 42.75 10.27 43.21 11.22 41.68 10.18 41.21"/>
      <path class="cls-1" d="m16.21,42.15l.47-.02c.07,0,.12.06.17.12.06.08.09.18.09.3l.07,1.44h.27s-.11.64-.11.64l-1.45.07.11-.63.76-.04-.06-1.26-.5.02c-.06,0-.1-.04-.16-.08-.04-.04-.08-.08-.1-.14l.16-.56c.03.06.07.09.12.11.06.03.1.04.15.03m1.83-.4l.66.38.47,2.22-.41.09-.4-1.88-.36-.19.04-.61Zm1.06-.54c.06.18.09.3.13.49l.79-.23c.06.17.12.4.2.83.09.56.07.93-.05,1.41-.05.21-.11.35-.21.52l-.35-.44c.15-.24.22-.46.23-.82,0-.27-.01-.46-.09-.75l-.74.22c-.06-.29-.1-.47-.19-.75-.07-.24-.04-.11-.13-.36l.41-.11Zm2.05.21l.34,1.31-.41.12-.35-.94-.43-.12-.03-.64.88.27Zm.77-.63c.2.34.33.54.53.86.25.4.42.65.69,1.05l-.27.35-.38-.59-.05.82-.47-.19.06-.97.31.12-.57-.9-.43-.03-.11-.58.69.05Zm1.16-.35l.42,1.41-.37.12-.4-.98-.44-.06-.12-.63.91.13Zm-7.61,3.56c0,.11-.03.19-.08.27-.04.07-.08.11-.15.14l-.74.24-.09-.57.64-.21.1-1.03c-.11-.09-.2-.14-.33-.16-.12-.01-.28.01-.44.11,0,.32-.02.52-.06.84-.05.36-.12.59-.24.92l-.41-.04c.15-.4.22-.67.26-1.1.04-.46.04-.76-.03-1.2l.37-.39c.04.13.06.22.09.36.02.14.03.25.03.39l.28-.53.62.06s.18.06.24.17c.06.09.08.21.08.34l-.13,1.39Zm-2.68,0c-.15.16-.27.25-.44.35l-.09-.56c.25-.13.41-.29.6-.6.14-.23.21-.41.28-.7l-.75-.17c.09-.28.14-.45.21-.75.05-.24.04-.12.08-.38l.4.11c-.04.19-.07.31-.13.49l.81.18c-.03.18-.09.41-.23.82-.19.53-.4.85-.74,1.21m-1.18-.27c-.06.05-.12.08-.19.07l-1.05-.1.12-.57.94.07.37-1.03-.44-.16c-.07-.04-.12-.09-.18-.16-.05-.05-.07-.1-.1-.18l.4-.44s.04.07.07.1c.03.03.05.05.09.07l.54.19c.07.03.12.09.14.18.02.07.02.14-.01.24l-.53,1.5c-.04.1-.09.16-.16.22m-3.06-1.03l.85-1.62c-.07-.05-.1-.12-.12-.21-.02-.07-.02-.13-.01-.2l.43-.4c.01.06.03.12.06.17.04.05.07.1.13.13l1.21.63-1.17,2.23-1.38-.72Zm-.51-4.32v4.64c4.7,3.06,11.09,2.9,15.95.04v-4.68c-4.68,3.95-11.3,3.95-15.95,0"/>
      <path class="cls-1" d="m22.46,15.15l-.57,1.33.38.16-.45.51-2.06-.88.45-.49,1.07.46.5-1.16-.7-.3c-.08-.04-.13-.1-.18-.17-.04-.06-.07-.12-.08-.19l.47-.4c.02.08.06.13.12.18.06.06.12.1.2.13l.67.29c.1.05.15.13.19.22.04.11.04.21,0,.32m-4.26.84l.05-.6.96.04.28-1.1-.57-.41.45-.47.85.62-.52,2.05-1.49-.13Zm-1.02-2.28l.4-.56,1.03.71-.3,1.21-.68-.12.17-.85-.61-.39Zm-2.22,1.35c.1.12.26.28.28.31,0,.02.07.19,0,.26-.09.08-.51.22-.51.22l-1.49.3-.1-.65s.47-.04.75-.09c.19-.04.32-.07.5-.14-.21-.21-.35-.36-.52-.59-.18-.24-.29-.41-.42-.68l-.42-.15.27-.58.59.25c.08.16.15.26.25.41.09.14.17.24.28.37l.29-.44-.32-.18.32-.57.79.5c-.08.17-.15.29-.24.46-.16.29-.28.45-.47.72.07.09.13.16.2.25m-2.58.38l-.32-.9-.72-.13.15-.67,1.22.26.32,1.16-.66.27Zm-1.09,1.25l-.67-1.8-.54-.08.03-.64.99.17.79,2.12-.61.23Zm-.77.93l-1.06-2.21-.55-.04.02-.63.94.06,1.22,2.54-.58.28Zm13.48-2.83c-4.86-2.87-11.26-3.02-15.95.04v4.64c4.65-3.95,11.27-3.95,15.95,0v-4.68Z"/>
      <rect class="cls-1" x="20.65" y="20.65" width="9.48" height="2"/>
      <rect class="cls-1" x="5.74" y="37.94" width="2" height="4.57"/>
      <rect class="cls-1" x="24.63" y="37.94" width="2" height="4.57"/>
      <rect class="cls-1" x="5.74" y="15.32" width="2" height="4.57"/>
      <rect class="cls-1" x="24.63" y="15.32" width="2" height="4.57"/>
      <path class="cls-1" d="m30.99,23.05h-1.78v11.72h1.78s1.02-2.58,1.02-5.87-1.02-5.85-1.02-5.85"/>
      <path class="cls-1" d="m2.8,23.05h-1.77s-1.02,2.56-1.02,5.85,1.02,5.87,1.02,5.87h1.77v-11.72Z"/>
      <path class="cls-1" d="m14.52,12.02c.59-.06,1.04-.08,1.49-.08s.9.03,1.49.08c-.81-3.05-.88-6.95-.01-9.51-.42.23-.99.29-1.48.29s-1.06-.06-1.48-.29c.87,2.56.8,6.46-.01,9.51"/>
      <path class="cls-1" d="m16.01,2.48c.68,0,1.24-.56,1.24-1.24s-.56-1.24-1.24-1.24-1.24.56-1.24,1.24.56,1.24,1.24,1.24"/>
    </g>
  </g>
</svg>