<?xml version="1.0" encoding="UTF-8"?>
<svg id="Layer_2" data-name="Layer 2" xmlns="http://www.w3.org/2000/svg" viewBox="0 0 14.82 14.82">
  <defs>
    <style>
      .cls-1 {
        fill: #a9abae;
      }
    </style>
  </defs>
  <g id="Layer_1-2" data-name="Layer 1">
    <g>
      <path class="cls-1" d="m8.35,8.04l.21-.28c.27-.37.61-.7,1-.99s.7-.44.92-.44c.03,0,.08,0,.16.01-.25-.73-.62-1.1-1.1-1.1-.62,0-1.31.49-2.07,1.46l-.16.21-.21-.26c-.52-.67-.83-1.36-.94-2.06-.73.55-1.1,1.03-1.1,1.44,0,.5.33,1.1,1,1.81l.24.26-.18.23c-.73.91-1.4,1.37-2,1.37-.03,0-.08,0-.15,0,.51.85,1.02,1.28,1.54,1.28.46,0,1.04-.54,1.75-1.61l.1-.14.31.29c.79.74,1.4,1.11,1.82,1.11.46,0,.91-.43,1.34-1.3-.8,0-1.56-.36-2.3-1.07l-.2-.19Z"/>
      <path class="cls-1" d="m7.41,0C3.32,0,0,3.32,0,7.41s3.32,7.41,7.41,7.41,7.41-3.32,7.41-7.41S11.5,0,7.41,0Zm0,13.8c-3.52,0-6.39-2.87-6.39-6.39S3.89,1.02,7.41,1.02s6.39,2.87,6.39,6.39-2.87,6.39-6.39,6.39Z"/>
    </g>
  </g>
</svg>